<svg x="0" y="0" width="700" height="350" viewBox="0 0 700 350" xmlns="http://www.w3.org/2000/svg" xmlns:xlink="http://www.w3.org/1999/xlink" xmlns:fi="http://pattern.flaticon.com/"><rect x="0px" y="0px" width="100%" height="100%" opacity="1" fill="#131313"/><defs><g transform="matrix(0.13206017017364502 -0.03538541495800018 0.03538541495800018 0.13206017017364502 106.13392639160156 255.2512664794922)" id="L1_303"><path d="m167.722656 512c-52.964844 0-167.722656-2.222656-167.722656-123.585938 0-121.363281 88.277344-388.414062 414.898438-388.414062 61.792968 0 97.101562 17.65625 97.101562 61.792969s-105.929688 61.792969-105.929688 158.898437c0 97.101563 132.414063 291.308594-238.347656 291.308594zm0 0" fill="#af8066"/><path d="m167.722656 476.691406c-95.285156 0-132.414062-24.71875-132.414062-88.277344 0-98.207031 68.195312-353.105468 379.589844-353.105468 57.75 0 61.527343 15.625 61.792968 24.71875-7.300781 7.941406-15.398437 15.105468-24.171875 21.378906-32.574219 25.503906-81.761719 64.109375-81.761719 139.285156 1.136719 24.679688 4.878907 49.171875 11.167969 73.0625 10.707031 48.289063 21.777344 98.21875-3.867187 130.164063-27.710938 34.523437-100.441406 52.773437-210.335938 52.773437zm0 0" fill="#804537"/><g fill="#2c2f38"><path d="m144.320312 450.207031c-2.714843 0-5.28125-1.25-6.953124-3.390625l-64.867188-82.871094c-2.167969-2.460937-2.796875-5.921874-1.625-8.988281 1.167969-3.066406 3.941406-5.230469 7.199219-5.617187 3.257812-.390625 6.460937 1.058594 8.320312 3.761718l64.867188 82.882813c2.050781 2.660156 2.417969 6.25.945312 9.265625-1.472656 3.015625-4.527343 4.9375-7.886719 4.957031zm0 0"/><path d="m211.863281 446.039062c-2.71875 0-5.285156-1.25-6.957031-3.386718l-114.757812-146.636719c-1.945313-2.484375-2.417969-5.816406-1.238282-8.742187 1.179688-2.925782 3.828125-5 6.953125-5.441407 3.121094-.441406 6.242188.816407 8.1875 3.300781l114.757813 146.640626c2.078125 2.660156 2.460937 6.269531.984375 9.304687-1.480469 3.035156-4.554688 4.960937-7.929688 4.960937zm0 0"/><path d="m279.03125 441.378906c-2.71875 0-5.28125-1.25-6.957031-3.390625l-158.894531-203.035156c-3.003907-3.847656-2.320313-9.402344 1.53125-12.40625 3.847656-3.003906 9.402343-2.316406 12.40625 1.53125l158.898437 203.035156c2.082031 2.664063 2.460937 6.28125.972656 9.320313-1.484375 3.035156-4.578125 4.957031-7.957031 4.945312zm0 0"/><path d="m329.117188 414.898438c-2.714844 0-5.28125-1.25-6.953126-3.390626l-172.703124-220.691406c-2.074219-2.46875-2.636719-5.875-1.464844-8.882812 1.171875-3.003906 3.890625-5.132813 7.089844-5.546875 3.199218-.414063 6.367187.949219 8.269531 3.554687l172.703125 220.691406c2.078125 2.65625 2.457031 6.265626.984375 9.296876-1.476563 3.035156-4.550781 4.960937-7.925781 4.96875zm0 0"/><path d="m358.480469 361.929688c-2.71875.003906-5.285157-1.25-6.957031-3.386719l-164.265626-209.902344c-2.074218-2.472656-2.632812-5.878906-1.460937-8.882813 1.171875-3.007812 3.886719-5.132812 7.085937-5.550781 3.199219-.414062 6.371094.949219 8.269532 3.554688l164.308594 209.902343c2.082031 2.664063 2.460937 6.285157.976562 9.320313-1.488281 3.035156-4.578125 4.957031-7.957031 4.945313zm0 0"/><path d="m339.484375 247.171875c-2.71875 0-5.285156-1.25-6.957031-3.390625l-101.128906-129.226562c-2.074219-2.46875-2.636719-5.875-1.464844-8.882813 1.171875-3.003906 3.890625-5.132813 7.089844-5.546875 3.199218-.414062 6.367187.949219 8.269531 3.554688l101.128906 129.226562c2.078125 2.65625 2.457031 6.265625.984375 9.300781-1.476562 3.03125-4.550781 4.960938-7.921875 4.964844zm0 0"/><path d="m348.125 167.722656c-2.71875.003906-5.289062-1.246094-6.964844-3.386718l-55.261718-70.621094c-2.074219-2.472656-2.636719-5.878906-1.464844-8.882813 1.171875-3.007812 3.890625-5.132812 7.089844-5.546875 3.199218-.417968 6.371093.945313 8.269531 3.554688l55.269531 70.617187c2.078125 2.660157 2.460938 6.265625.984375 9.300781-1.472656 3.03125-4.550781 4.960938-7.921875 4.964844zm0 0"/><path d="m379.585938 117.460938c-2.714844 0-5.28125-1.25-6.957032-3.390626l-26.480468-33.84375c-2.074219-2.472656-2.636719-5.878906-1.464844-8.882812 1.171875-3.007812 3.890625-5.132812 7.089844-5.550781 3.199218-.414063 6.367187.949219 8.269531 3.554687l26.480469 33.839844c2.085937 2.65625 2.46875 6.265625.992187 9.304688-1.472656 3.035156-4.554687 4.964843-7.929687 4.96875zm0 0"/></g></g><g transform="matrix(0.17972995340824127 0 0 0.17972995340824127 270.9292297363281 269.988037109375)" id="L1_306"><path d="m176.5625 512.019531c-44.140625 0-176.5546875-8.828125-176.5546875-141.242187 0-58.976563 38.6406255-102.648438 50.8124995-114.398438.421876-.402344 1.066407-.464844 1.5625-.152344.492188.3125.707032.925782.519532 1.476563-4.730469 14.558594-15.816406 60.109375 35.382812 60.109375 17.65625 0 35.308594-8.828125 35.308594-44.136719 0-35.3125-44.136719-70.621093-44.136719-123.589843 0-58.738282 33.296875-142.007813 97.105469-150.0664068 1.160156-.1406252 2.273438.5156248 2.714844 1.6015628.4375 1.085937.097656 2.332031-.835938 3.039062-10.441406 7.65625-28.363281 24.164063-28.363281 48.324219 0 105.929687 203.035156 141.242187 203.035156 317.792969 0 132.414062-132.414062 141.242187-176.550781 141.242187zm0 0" fill="#f29c1f"/><path d="m176.5625 476.707031c-64.441406 0-141.242188-18.378906-141.242188-105.929687.039063-10.660156 1.675782-21.25 4.855469-31.425782 14.152344 9.613282 31.011719 14.441407 48.109375 13.769532 32.574219 0 70.621094-20.804688 70.621094-79.445313 0-25.117187-11.828125-46.160156-23.261719-66.519531-10.742187-19.109375-20.875-37.152344-20.875-57.070312.273438-17.625 3.359375-35.097657 9.136719-51.753907 16.152344 38.683594 51.320312 68.492188 85.625 97.554688 53.230469 45.125 108.269531 91.761719 108.269531 174.890625 0 48.320312-24.503906 105.929687-141.238281 105.929687zm0 0" fill="#f0c419"/><path d="m176.5625 441.398438c-82.355469 0-100.636719-31.003907-104.765625-53.847657 5.472656.605469 10.980469.902344 16.488281.882813 51.023438 0 105.929688-35.910156 105.929688-114.757813-.296875-19.234375-4.746094-38.179687-13.035156-55.535156l5.523437 4.6875c51.402344 43.5625 95.789063 81.1875 95.789063 147.949219 0 19.316406 0 70.621094-105.929688 70.621094zm0 0" fill="#f29c1f"/><path d="m176.5625 406.085938c-5.414062 0-11.652344-.15625-18.152344-.632813 35.585938-20.265625 60.34375-55.28125 67.585938-95.585937 13.851562 17.265624 21.335937 38.773437 21.1875 60.910156 0 13.242187 0 35.308594-70.621094 35.308594zm0 0" fill="#d25627"/><path d="m256.007812 26.5s.152344.371094.390626 1.0625c5.082031 14.660156 1.191406 30.941406-9.96875 41.726562-8.660157 8.371094-10.578126 21.535157-4.671876 32.03125 5.910157 10.5 18.160157 15.683594 29.8125 12.621094 11.648438-3.0625 19.765626-13.601562 19.75-25.648437.335938-25.484375-13.183593-49.140625-35.3125-61.792969zm0 0" fill="#f29c1f"/><g fill="#802f34"><path d="m88.285156 450.226562h-26.484375c-4.875 0-8.824219-3.953124-8.824219-8.828124v-52.964844c0-4.875 3.949219-8.828125 8.824219-8.828125h26.484375c19.5 0 35.308594 15.808593 35.308594 35.308593 0 19.503907-15.808594 35.3125-35.308594 35.3125zm-17.65625-17.65625h17.65625c9.75 0 17.65625-7.90625 17.65625-17.65625s-7.90625-17.652343-17.65625-17.652343h-17.65625zm0 0"/><path d="m176.5625 450.226562h-26.484375c-4.875 0-8.828125-3.953124-8.828125-8.828124v-52.964844c0-4.875 3.953125-8.828125 8.828125-8.828125h26.484375c19.5 0 35.308594 15.808593 35.308594 35.308593 0 19.503907-15.808594 35.3125-35.308594 35.3125zm-17.65625-17.65625h17.65625c9.75 0 17.652344-7.90625 17.652344-17.65625s-7.902344-17.652343-17.652344-17.652343h-17.65625zm0 0"/><path d="m264.835938 450.226562c-19.5 0-35.308594-15.808593-35.308594-35.3125v-35.308593c0-19.5 15.808594-35.3125 35.308594-35.3125 19.503906 0 35.3125 15.8125 35.3125 35.3125v35.308593c0 19.503907-15.808594 35.3125-35.3125 35.3125zm0-88.277343c-9.75 0-17.652344 7.90625-17.652344 17.65625v35.308593c0 9.75 7.902344 17.65625 17.652344 17.65625s17.65625-7.90625 17.65625-17.65625v-35.308593c0-9.75-7.90625-17.65625-17.65625-17.65625zm0 0"/><path d="m300.148438 450.226562c-2.34375 0-4.585938-.933593-6.242188-2.585937l-26.484375-26.484375c-3.34375-3.464844-3.296875-8.96875.109375-12.375s8.910156-3.453125 12.375-.105469l26.480469 26.480469c2.527343 2.523438 3.28125 6.320312 1.914062 9.621094-1.367187 3.296875-4.582031 5.449218-8.152343 5.449218zm0 0"/><path d="m97.113281 397.261719h-35.3125c-4.875 0-8.824219-3.953125-8.824219-8.828125v-35.3125c0-4.875 3.949219-8.828125 8.824219-8.828125h35.3125c14.625 0 26.480469 11.859375 26.480469 26.484375s-11.855469 26.484375-26.480469 26.484375zm-26.484375-17.65625h26.484375c4.875 0 8.828125-3.953125 8.828125-8.828125s-3.953125-8.828125-8.828125-8.828125h-26.484375zm0 0"/><path d="m185.390625 397.261719h-35.3125c-4.875 0-8.828125-3.953125-8.828125-8.828125v-35.3125c0-4.875 3.953125-8.828125 8.828125-8.828125h35.3125c14.625 0 26.480469 11.859375 26.480469 26.484375s-11.855469 26.484375-26.480469 26.484375zm-26.484375-17.65625h26.484375c4.875 0 8.824219-3.953125 8.824219-8.828125s-3.949219-8.828125-8.824219-8.828125h-26.484375zm0 0"/></g></g><g transform="matrix(0.1171875 0 0 0.1171875 242 87)" id="L1_307"><path d="m503.464844 256c0 136.671875-110.792969 247.464844-247.464844 247.464844s-247.464844-110.792969-247.464844-247.464844 110.792969-247.464844 247.464844-247.464844 247.464844 110.792969 247.464844 247.464844zm0 0" fill="#2c2f38"/><g fill="#bdc3c7"><path d="m93.867188 273.066406h-85.332032c-4.714844 0-8.535156-3.820312-8.535156-8.53125 0-4.714844 3.820312-8.535156 8.535156-8.535156h85.332032c4.710937 0 8.53125 3.820312 8.53125 8.535156 0 4.710938-3.820313 8.53125-8.53125 8.53125zm0 0"/><path d="m102.398438 324.265625h-86.578126c-4.710937 0-8.53125-3.820313-8.53125-8.53125 0-4.714844 3.820313-8.535156 8.53125-8.535156h86.578126c4.714843 0 8.535156 3.820312 8.535156 8.535156 0 4.710937-3.820313 8.53125-8.535156 8.53125zm0 0"/><path d="m496.203125 324.265625h-189.003906c-4.710938 0-8.53125-3.820313-8.53125-8.53125 0-4.714844 3.820312-8.535156 8.53125-8.535156h189.003906c4.714844 0 8.535156 3.820312 8.535156 8.535156 0 4.710937-3.820312 8.53125-8.535156 8.53125zm0 0"/><path d="m442.949219 426.667969h-186.949219c-4.710938 0-8.535156-3.820313-8.535156-8.535157 0-4.710937 3.824218-8.53125 8.535156-8.53125h186.949219c4.710937 0 8.53125 3.820313 8.53125 8.53125 0 4.714844-3.820313 8.535157-8.53125 8.535157zm0 0"/><path d="m381.484375 477.867188h-185.21875c-4.710937 0-8.53125-3.820313-8.53125-8.535157 0-4.710937 3.820313-8.53125 8.53125-8.53125h185.21875c4.710937 0 8.53125 3.820313 8.53125 8.53125 0 4.714844-3.820313 8.535157-8.53125 8.535157zm0 0"/><path d="m179.199219 221.867188h-163.378907c-4.710937 0-8.53125-3.820313-8.53125-8.535157 0-4.710937 3.820313-8.53125 8.53125-8.53125h163.378907c4.714843 0 8.535156 3.820313 8.535156 8.53125 0 4.714844-3.820313 8.535157-8.535156 8.535157zm0 0"/><path d="m503.464844 273.066406h-153.597656c-4.714844 0-8.535157-3.820312-8.535157-8.53125 0-4.714844 3.820313-8.535156 8.535157-8.535156h153.597656c4.714844 0 8.535156 3.820312 8.535156 8.535156 0 4.710938-3.820312 8.53125-8.535156 8.53125zm0 0"/><path d="m499.796875 221.867188h-90.195313c-4.714843 0-8.535156-3.820313-8.535156-8.535157 0-4.710937 3.820313-8.53125 8.535156-8.53125h90.195313c4.714844 0 8.535156 3.820313 8.535156 8.53125 0 4.714844-3.820312 8.535157-8.535156 8.535157zm0 0"/><path d="m247.464844 170.667969h-216.8125c-4.714844 0-8.535156-3.820313-8.535156-8.535157 0-4.710937 3.820312-8.53125 8.535156-8.53125h216.8125c4.714844 0 8.535156 3.820313 8.535156 8.53125 0 4.714844-3.820312 8.535157-8.535156 8.535157zm0 0"/><path d="m247.464844 119.464844h-185.503906c-4.714844 0-8.535157-3.820313-8.535157-8.53125 0-4.714844 3.820313-8.535156 8.535157-8.535156h185.503906c4.714844 0 8.535156 3.820312 8.535156 8.535156 0 4.710937-3.820312 8.53125-8.535156 8.53125zm0 0"/><path d="m324.265625 68.265625h-219.015625c-4.710938 0-8.53125-3.820313-8.53125-8.53125 0-4.714844 3.820312-8.535156 8.53125-8.535156h219.015625c4.714844 0 8.535156 3.820312 8.535156 8.535156 0 4.710937-3.820312 8.53125-8.535156 8.53125zm0 0"/><path d="m477.261719 375.464844h-212.726563c-4.714844 0-8.535156-3.820313-8.535156-8.53125 0-4.714844 3.820312-8.535156 8.535156-8.535156h212.726563c4.710937 0 8.53125 3.820312 8.53125 8.535156 0 4.710937-3.820313 8.53125-8.53125 8.53125zm0 0"/><path d="m153.507812 367.027344c-3.453124 0-6.5625-2.078125-7.882812-5.269532-1.320312-3.1875-.589844-6.855468 1.847656-9.296874l38.042969-38.042969c3.347656-3.234375 8.667969-3.1875 11.960937.105469 3.292969 3.292968 3.339844 8.613281.105469 11.960937l-38.007812 38.042969c-1.609375 1.609375-3.792969 2.507812-6.066407 2.5zm0 0"/><path d="m8.953125 511.582031c-3.453125 0-6.5625-2.078125-7.882813-5.269531-1.320312-3.1875-.589843-6.855469 1.847657-9.296875l22.828125-22.828125c2.140625-2.21875 5.3125-3.105469 8.296875-2.324219s5.3125 3.109375 6.09375 6.09375-.105469 6.15625-2.324219 8.296875l-22.828125 22.828125c-1.601563 1.601563-3.769531 2.5-6.03125 2.5zm0 0"/><path d="m480.640625 39.894531c-3.453125 0-6.5625-2.082031-7.882813-5.269531-1.320312-3.1875-.589843-6.859375 1.847657-9.296875l22.828125-22.828125c3.347656-3.234375 8.671875-3.1875 11.960937.105469 3.292969 3.289062 3.339844 8.613281.105469 11.960937l-22.828125 22.828125c-1.597656 1.597657-3.769531 2.5-6.03125 2.5zm0 0"/><path d="m313.265625 207.265625c-3.457031.011719-6.578125-2.058594-7.90625-5.25-1.332031-3.191406-.605469-6.871094 1.839844-9.316406l45.652343-45.652344c3.351563-3.234375 8.671876-3.1875 11.964844.101563 3.289063 3.292968 3.335938 8.617187.101563 11.964843l-45.617188 45.6875c-1.605469 1.585938-3.777343 2.472657-6.035156 2.464844zm0 0"/></g><path d="m256 512c-141.386719 0-256-114.613281-256-256s114.613281-256 256-256 256 114.613281 256 256c-.160156 141.320312-114.679688 255.839844-256 256zm0-494.933594c-131.960938 0-238.933594 106.972656-238.933594 238.933594s106.972656 238.933594 238.933594 238.933594 238.933594-106.972656 238.933594-238.933594c-.152344-131.898438-107.035156-238.78125-238.933594-238.933594zm0 0" fill="#95a5a5"/><path d="m61.105469 501.222656c-21.875-10.769531-39.578125-28.46875-50.34375-50.347656-2.269531-4.234375-2.820313-9.175781-1.539063-13.804688 5.589844-19.464843 20.804688-34.683593 40.269532-40.269531 4.628906-1.277343 9.566406-.726562 13.800781 1.535157 21.875 10.769531 39.574219 28.472656 50.34375 50.347656 2.277343 4.234375 2.835937 9.183594 1.5625 13.824218-5.585938 19.464844-20.804688 34.679688-40.269531 40.269532-4.632813 1.28125-9.585938.726562-13.824219-1.554688zm0 0" fill="#cb8252"/><path d="m166.109375 388.921875c0 23.769531-19.265625 43.035156-43.03125 43.035156-23.769531 0-43.035156-19.265625-43.035156-43.035156 0-23.765625 19.265625-43.03125 43.035156-43.03125 23.765625 0 43.03125 19.265625 43.03125 43.03125zm0 0" fill="#e64c3c"/><path d="m388.265625 174.078125c-21.875-10.769531-39.574219-28.46875-50.34375-50.34375-2.261719-4.234375-2.8125-9.171875-1.539063-13.800781 5.589844-19.464844 20.804688-34.679688 40.269532-40.265625 4.628906-1.285157 9.570312-.738281 13.808594 1.527343 21.871093 10.773438 39.570312 28.472657 50.34375 50.34375 2.265624 4.238282 2.8125 9.179688 1.527343 13.808594-5.585937 19.464844-20.800781 34.679688-40.265625 40.269532-4.628906 1.273437-9.566406.722656-13.800781-1.539063zm0 0" fill="#cb8252"/><path d="m493.242188 61.789062c0 23.769532-19.265626 43.035157-43.03125 43.035157-23.769532 0-43.035157-19.265625-43.035157-43.035157 0-23.765624 19.265625-43.03125 43.035157-43.03125 23.765624 0 43.03125 19.265626 43.03125 43.03125zm0 0" fill="#e64c3c"/><path d="m220.875 341.460938c-21.875-10.769532-39.574219-28.46875-50.34375-50.347657-2.261719-4.230469-2.8125-9.171875-1.539062-13.796875 5.589843-19.464844 20.804687-34.679687 40.269531-40.269531 4.628906-1.285156 9.574219-.734375 13.808593 1.535156 21.878907 10.769531 39.578126 28.46875 50.347657 50.347657 2.269531 4.234374 2.820312 9.179687 1.535156 13.808593-5.582031 19.480469-20.808594 34.710938-40.285156 40.300781-4.628907 1.261719-9.566407.695313-13.792969-1.578124zm0 0" fill="#cb8252"/><path d="m325.871094 229.164062c0 23.765626-19.265625 43.03125-43.035156 43.03125-23.765626 0-43.03125-19.265624-43.03125-43.03125 0-23.769531 19.265624-43.035156 43.03125-43.035156 23.769531 0 43.035156 19.265625 43.035156 43.035156zm0 0" fill="#e64c3c"/><path d="m218.367188 401.066406c-2.261719 0-4.433594-.898437-6.03125-2.5-7.105469-6.804687-12.53125-15.167968-15.847657-24.429687-2.460937-7.113281-6.601562-13.523438-12.066406-18.699219-5.175781-5.464844-11.59375-9.605469-18.703125-12.074219-9.265625-3.308593-17.628906-8.734375-24.421875-15.84375-7.105469-6.792969-12.523437-15.152343-15.824219-24.40625-2.457031-7.097656-6.585937-13.5-12.039062-18.664062-3.234375-3.347657-3.1875-8.667969.105468-11.960938 3.289063-3.292969 8.613282-3.339843 11.960938-.105469 7.097656 6.792969 12.515625 15.144532 15.820312 24.398438 2.453126 7.101562 6.582032 13.507812 12.039063 18.671875 5.171875 5.46875 11.585937 9.609375 18.699219 12.074219 9.265625 3.308594 17.628906 8.734375 24.429687 15.84375 7.105469 6.796875 12.53125 15.15625 15.847657 24.414062 2.46875 7.121094 6.617187 13.539063 12.089843 18.714844 2.445313 2.445312 3.171875 6.121094 1.84375 9.308594-1.324219 3.191406-4.445312 5.269531-7.902343 5.257812zm0 0" fill="#71c285"/><path d="m389.035156 238.933594c-2.261718 0-4.433594-.898438-6.035156-2.5-7.105469-6.804688-12.53125-15.167969-15.84375-24.429688-5.359375-14.203125-16.570312-25.414062-30.773438-30.773437-9.261718-3.308594-17.625-8.734375-24.421874-15.847657-7.101563-6.789062-12.519532-15.148437-15.820313-24.402343-2.457031-7.097657-6.585937-13.5-12.039063-18.664063-2.21875-2.140625-3.109374-5.316406-2.328124-8.296875.78125-2.984375 3.109374-5.316406 6.09375-6.097656 2.984374-.777344 6.15625.109375 8.300781 2.328125 7.097656 6.792969 12.515625 15.144531 15.820312 24.398438 2.449219 7.101562 6.582031 13.507812 12.039063 18.671874 5.171875 5.46875 11.585937 9.609376 18.695312 12.074219 18.539063 7.089844 33.183594 21.734375 40.277344 40.265625 2.472656 7.117188 6.621094 13.53125 12.09375 18.707032 2.441406 2.445312 3.171875 6.121093 1.84375 9.308593-1.328125 3.191407-4.449219 5.265625-7.902344 5.257813zm0 0" fill="#71c285"/></g><g transform="matrix(0.1171875 0 0 0.1171875 65 43)" id="L1_308"><path d="m451.253906 454.898438v.695312h-433.898437v-229.964844h433.898437zm0 0" fill="#285680"/><path d="m152.472656 190.914062-45.125 31.09375-68.902344-31.09375c7.199219-17.441406 22.300782-32.195312 22.300782-52.066406 0-16.316406 3.382812-52.9375 5.902344-78.101562l24.46875-26.035156 33.152343 26.035156c2.515625 25.164062 5.898438 61.785156 5.898438 78.101562 0 19.871094 15.101562 34.625 22.304687 52.066406zm0 0" fill="#805333"/><path d="m124.269531 60.746094h-57.621093c1.558593-15.101563 2.773437-26.035156 2.773437-26.035156v-26.03125h52.070313v26.03125s1.214843 10.933593 2.777343 26.035156zm0 0" fill="#cb8252"/><path d="m440.839844 95.457031c-15.792969 19.09375-36.359375 43.738281-46.945313 54.324219-11.023437 11.109375-13.277343 26.554688-17.183593 41.132812l-72.980469 31.09375-85.914063-31.09375 59.53125-59.53125c18.398438-18.394531 49.117188-12.234374 67.515625-30.632812 1.5625-1.5625 3.382813-3.296875 5.554688-5.292969l61.785156-20.972656zm0 0" fill="#805333"/><path d="m479.804688 51.632812-18.398438 18.398438s-8.9375 11.195312-20.566406 25.425781h-90.421875c22.734375-21.085937 74.195312-62.21875 74.195312-62.21875l18.398438-18.398437 18.394531 18.398437zm0 0" fill="#cb8252"/><path d="m130.167969 17.355469h-69.421875c-4.792969 0-8.679688-3.886719-8.679688-8.675781 0-4.792969 3.886719-8.679688 8.679688-8.679688h69.421875c4.792969 0 8.679687 3.886719 8.679687 8.679688 0 4.789062-3.886718 8.675781-8.679687 8.675781zm0 0" fill="#c03a2b"/><path d="m485.964844 66.445312c-2.300782 0-4.507813-.914062-6.132813-2.539062l-49.09375-49.09375c-3.289062-3.402344-3.242187-8.816406.105469-12.164062 3.347656-3.347657 8.761719-3.394532 12.167969-.105469l49.089843 49.089843c2.480469 2.484376 3.222657 6.214844 1.878907 9.457032-1.339844 3.242187-4.503907 5.355468-8.015625 5.355468zm0 0" fill="#c03a2b"/><path d="m480.585938 454.933594c-7.101563 6.777344-18.316407 6.648437-25.261719-.285156l-111.796875-112.425782c-3.300782-3.304687-5.132813-7.800781-5.078125-12.46875.058593-4.671875 1.992187-9.125 5.371093-12.347656 7.101563-6.777344 18.316407-6.652344 25.261719.285156l111.796875 112.421875c3.304688 3.304688 5.132813 7.800781 5.078125 12.472657-.058593 4.671874-1.992187 9.121093-5.371093 12.347656zm0 0" fill="#bdc3c7"/><g fill="#4482c3"><path d="m17.355469 190.914062h433.898437c9.585938 0 17.355469 7.773438 17.355469 17.355469v17.359375c0 9.582032-7.769531 17.355469-17.355469 17.355469h-433.898437c-9.585938 0-17.355469-7.773437-17.355469-17.355469v-17.359375c0-9.582031 7.769531-17.355469 17.355469-17.355469zm0 0"/><path d="m347.117188 277.695312c-17.480469-.113281-33.324219 10.273438-40.191407 26.355469-6.863281 16.078125-3.40625 34.707031 8.773438 47.253907 12.175781 12.546874 30.691406 16.558593 46.96875 10.175781l-19.140625-19.257813c-3.300782-3.304687-5.132813-7.800781-5.078125-12.46875.058593-4.671875 1.992187-9.125 5.371093-12.347656 7.101563-6.777344 18.316407-6.652344 25.261719.285156l18.527344 18.632813c5.144531-13.304688 3.375-28.292969-4.730469-40.03125-8.105468-11.734375-21.496094-18.699219-35.761718-18.597657zm0 0"/><path d="m451.253906 451.253906v8.679688c0 28.753906-23.3125 52.066406-52.066406 52.066406h-329.765625c-28.753906 0-52.066406-23.3125-52.066406-52.066406v-8.679688zm0 0"/></g></g><g transform="matrix(0.1171875 0 0 0.1171875 15 171)" id="L1_310"><path d="m317.839844 358.554688c14.882812-5.972657 33.449218-24.550782 45.824218-36.933594 45.371094-45.371094 43.785157-82.296875 36.15625-103.664063-10.4375 14.089844-44.835937-17.542969-58.488281-3.914062-15.429687 15.433593-9.046875 74.589843-24.996093 85.886719 10.882812 19.34375 3.476562 41.496093-3.121094 54.828124-1.484375 3.011719 1.492187 5.058594 4.625 3.796876zm0 0" fill="#3f5c6c"/><path d="m153.445312 194.160156c5.972657-14.882812 24.550782-33.453125 36.933594-45.824218 45.371094-45.371094 82.292969-43.785157 103.660156-36.15625-14.085937 10.4375.480469 51.257812-13.148437 64.851562-15.4375 15.429688-57.523437 2.648438-68.820313 18.59375-19.347656-10.878906-41.5-3.472656-54.828124 3.125-3.011719 1.519531-5.058594-1.460938-3.796876-4.589844zm0 0" fill="#3f5c6c"/><path d="m8.53125 512c-3.449219 0-6.5625-2.078125-7.882812-5.269531-1.320313-3.1875-.5898442-6.855469 1.851562-9.296875l144.707031-144.714844c2.15625-2.15625 5.300781-3 8.246094-2.207031 2.945313.789062 5.242187 3.089843 6.03125 6.035156s-.054687 6.089844-2.210937 8.246094l-144.707032 144.707031c-1.601562 1.601562-3.773437 2.5-6.035156 2.5zm0 0" fill="#95a5a5"/><path d="m431.785156 88.789062c-3.453125.011719-6.570312-2.058593-7.898437-5.246093-1.328125-3.183594-.609375-6.855469 1.824219-9.304688l71.722656-71.738281c3.347656-3.234375 8.667968-3.1875 11.960937.105469 3.292969 3.289062 3.335938 8.613281.105469 11.960937l-71.722656 71.679688c-1.585938 1.605468-3.738282 2.519531-5.992188 2.542968zm0 0" fill="#95a5a5"/><path d="m221.863281 68.265625c-4.710937 0-8.53125-3.820313-8.53125-8.53125.039063-5.609375 2.507813-10.925781 6.765625-14.574219 1.765625-1.769531 1.765625-1.851562 1.765625-2.492187s0-.734375-1.765625-2.5c-4.257812-3.648438-6.722656-8.960938-6.765625-14.566407.039063-5.605468 2.507813-10.917968 6.765625-14.558593 1.765625-1.785157 1.765625-1.871094 1.765625-2.507813 0-4.714844 3.824219-8.535156 8.535157-8.535156 4.710937 0 8.535156 3.820312 8.535156 8.535156-.042969 5.605469-2.511719 10.917969-6.769532 14.566406-1.765624 1.757813-1.765624 1.839844-1.765624 2.5 0 .65625 0 .730469 1.765624 2.507813 4.292969 3.625 6.765626 8.953125 6.765626 14.570313 0 5.617187-2.472657 10.945312-6.765626 14.570312-1.765624 1.75-1.765624 1.835938-1.765624 2.484375 0 4.710937-3.820313 8.53125-8.535157 8.53125zm0 0" fill="#cbb292"/><path d="m102.398438 196.265625c-4.710938 0-8.535157-3.820313-8.535157-8.53125.039063-5.609375 2.507813-10.925781 6.769531-14.574219 1.765626-1.757812 1.765626-1.84375 1.765626-2.492187 0-.648438 0-.734375-1.765626-2.5-4.292968-3.625-6.765624-8.957031-6.765624-14.570313 0-5.617187 2.472656-10.949218 6.765624-14.574218 1.765626-1.757813 1.765626-1.839844 1.765626-2.488282 0-4.714844 3.820312-8.535156 8.535156-8.535156 4.710937 0 8.53125 3.820312 8.53125 8.535156-.039063 5.605469-2.507813 10.917969-6.765625 14.566406-1.765625 1.765626-1.765625 1.851563-1.765625 2.5 0 .648438 0 .730469 1.765625 2.5 4.289062 3.625 6.765625 8.957032 6.765625 14.574219 0 5.617188-2.476563 10.949219-6.765625 14.574219-1.765625 1.757812-1.765625 1.84375-1.765625 2.484375 0 4.710937-3.824219 8.53125-8.535156 8.53125zm0 0" fill="#cbb292"/><path d="m418.132812 409.601562c-4.714843 0-8.535156-3.820312-8.535156-8.535156.039063-5.609375 2.507813-10.925781 6.769532-14.574218 1.765624-1.757813 1.765624-1.84375 1.765624-2.492188s0-.734375-1.765624-2.5c-4.292969-3.625-6.769532-8.953125-6.769532-14.570312 0-5.617188 2.476563-10.949219 6.769532-14.570313 1.765624-1.757813 1.765624-1.84375 1.765624-2.492187 0-4.714844 3.820313-8.535157 8.53125-8.535157 4.714844 0 8.535157 3.820313 8.535157 8.535157-.042969 5.605468-2.507813 10.917968-6.769531 14.566406-1.765626 1.765625-1.765626 1.851562-1.765626 2.5 0 .648437 0 .734375 1.765626 2.5 4.292968 3.625 6.769531 8.957031 6.769531 14.574218 0 5.617188-2.476563 10.949219-6.769531 14.574219-1.765626 1.757813-1.765626 1.84375-1.765626 2.484375 0 4.714844-3.820312 8.535156-8.53125 8.535156zm0 0" fill="#cbb292"/><path d="m369.917969 253.355469c-10.835938-26.539063-37.238281-20.703125-59.339844-42.804688-17.324219-17.320312-26.847656-62.496093-47.15625-72.992187 65.707031-60.757813 139.265625-86.359375 168.363281-57.34375 29.78125 29.863281 2.132813 106.238281-61.867187 173.140625zm0 0" fill="#2fa8cc"/><path d="m369.917969 253.355469c-1.960938 2.132812-4.09375 4.265625-6.230469 6.398437-68.351562 68.351563-148.734375 98.816406-179.539062 68.097656-30.804688-30.722656-.257813-111.191406 68.09375-179.542968 3.671874-3.667969 7.425781-7.253906 11.179687-10.75 21.011719 10.890625 40.210937 24.96875 56.917969 41.726562 21.28125 21.152344 38.132812 46.332032 49.578125 74.070313zm0 0" fill="#67b9cc"/><g fill="#3f5c6c"><path d="m153.238281 358.757812c-28.226562-28.234374-65.621093-40.371093-82.351562-45.824218-1.585938-.539063-2.65625-2.023438-2.671875-3.699219-.011719-1.675781 1.035156-3.175781 2.609375-3.742187 34.457031-13.039063 90.097656-.980469 113.367187 22.28125 23.269532 23.261718 35.320313 78.941406 22.3125 113.398437-.578125 1.554687-2.066406 2.574219-3.722656 2.5625s-3.128906-1.058594-3.683594-2.621094c-5.488281-16.734375-17.621094-54.125-45.859375-82.355469zm0 0"/><path d="m366.933594 153.601562c-4.714844 0-8.535156-3.820312-8.535156-8.535156v-34.132812c0-4.714844 3.820312-8.535156 8.535156-8.535156 4.710937 0 8.53125 3.820312 8.53125 8.535156v34.132812c0 4.714844-3.820313 8.535156-8.53125 8.535156zm0 0"/><path d="m384 136.535156h-34.136719c-4.710937 0-8.53125-3.824218-8.53125-8.535156s3.820313-8.535156 8.53125-8.535156h34.136719c4.710938 0 8.53125 3.824218 8.53125 8.535156s-3.820312 8.535156-8.53125 8.535156zm0 0"/><path d="m249.589844 298.667969c-3.269532 0-6.253906-1.871094-7.679688-4.8125l-22.921875-47.378907c-1.394531-2.753906-1.195312-6.042968.523438-8.609374 1.71875-2.5625 4.6875-4 7.761719-3.753907 3.078124.242188 5.78125 2.128907 7.074218 4.929688l22.914063 47.371093c1.28125 2.644532 1.109375 5.761719-.449219 8.25-1.5625 2.492188-4.292969 4.003907-7.230469 4.003907zm0 0"/><path d="m278.527344 282.734375c-3.273438 0-6.257813-1.875-7.679688-4.820313l-33.65625-69.554687c-1.394531-2.753906-1.195312-6.046875.523438-8.609375 1.714844-2.5625 4.683594-4 7.761718-3.757812 3.078126.246093 5.78125 2.132812 7.074219 4.933593l33.648438 69.582031c1.28125 2.644532 1.109375 5.761719-.449219 8.25-1.5625 2.492188-4.292969 4.003907-7.230469 4.003907zm0 0"/><path d="m303.296875 258.839844c-3.269531 0-6.253906-1.871094-7.679687-4.820313l-26.179688-54.101562c-1.394531-2.75-1.195312-6.042969.523438-8.605469 1.71875-2.566406 4.6875-4 7.761718-3.757812 3.078125.242187 5.78125 2.128906 7.074219 4.933593l26.171875 54.097657c1.28125 2.644531 1.113281 5.765624-.449219 8.253906-1.558593 2.488281-4.289062 4-7.230469 4zm0 0"/></g></g></defs><g fi:class="KUsePattern"><pattern id="pattern_L1_303" width="350" height="350" patternUnits="userSpaceOnUse"><use xlink:href="#L1_303" x="-350" y="-350"/><use xlink:href="#L1_303" x="0" y="-350"/><use xlink:href="#L1_303" x="350" y="-350"/><use xlink:href="#L1_303" x="-350" y="0"/><use xlink:href="#L1_303" x="0" y="0"/><use xlink:href="#L1_303" x="350" y="0"/><use xlink:href="#L1_303" x="-350" y="350"/><use xlink:href="#L1_303" x="0" y="350"/><use xlink:href="#L1_303" x="350" y="350"/></pattern><rect x="0" y="0" width="100%" height="100%" fill="url(#pattern_L1_303)"/></g><g fi:class="KUsePattern"><pattern id="pattern_L1_306" width="350" height="350" patternUnits="userSpaceOnUse"><use xlink:href="#L1_306" x="-350" y="-350"/><use xlink:href="#L1_306" x="0" y="-350"/><use xlink:href="#L1_306" x="350" y="-350"/><use xlink:href="#L1_306" x="-350" y="0"/><use xlink:href="#L1_306" x="0" y="0"/><use xlink:href="#L1_306" x="350" y="0"/><use xlink:href="#L1_306" x="-350" y="350"/><use xlink:href="#L1_306" x="0" y="350"/><use xlink:href="#L1_306" x="350" y="350"/></pattern><rect x="0" y="0" width="100%" height="100%" fill="url(#pattern_L1_306)"/></g><g fi:class="KUsePattern"><pattern id="pattern_L1_307" width="350" height="350" patternUnits="userSpaceOnUse"><use xlink:href="#L1_307" x="-350" y="-350"/><use xlink:href="#L1_307" x="0" y="-350"/><use xlink:href="#L1_307" x="350" y="-350"/><use xlink:href="#L1_307" x="-350" y="0"/><use xlink:href="#L1_307" x="0" y="0"/><use xlink:href="#L1_307" x="350" y="0"/><use xlink:href="#L1_307" x="-350" y="350"/><use xlink:href="#L1_307" x="0" y="350"/><use xlink:href="#L1_307" x="350" y="350"/></pattern><rect x="0" y="0" width="100%" height="100%" fill="url(#pattern_L1_307)"/></g><g fi:class="KUsePattern"><pattern id="pattern_L1_308" width="350" height="350" patternUnits="userSpaceOnUse"><use xlink:href="#L1_308" x="-350" y="-350"/><use xlink:href="#L1_308" x="0" y="-350"/><use xlink:href="#L1_308" x="350" y="-350"/><use xlink:href="#L1_308" x="-350" y="0"/><use xlink:href="#L1_308" x="0" y="0"/><use xlink:href="#L1_308" x="350" y="0"/><use xlink:href="#L1_308" x="-350" y="350"/><use xlink:href="#L1_308" x="0" y="350"/><use xlink:href="#L1_308" x="350" y="350"/></pattern><rect x="0" y="0" width="100%" height="100%" fill="url(#pattern_L1_308)"/></g><g fi:class="KUsePattern"><pattern id="pattern_L1_310" width="350" height="350" patternUnits="userSpaceOnUse"><use xlink:href="#L1_310" x="-350" y="-350"/><use xlink:href="#L1_310" x="0" y="-350"/><use xlink:href="#L1_310" x="350" y="-350"/><use xlink:href="#L1_310" x="-350" y="0"/><use xlink:href="#L1_310" x="0" y="0"/><use xlink:href="#L1_310" x="350" y="0"/><use xlink:href="#L1_310" x="-350" y="350"/><use xlink:href="#L1_310" x="0" y="350"/><use xlink:href="#L1_310" x="350" y="350"/></pattern><rect x="0" y="0" width="100%" height="100%" fill="url(#pattern_L1_310)"/></g></svg>